<svg width="160" height="32" viewBox="0 0 160 32" fill="none" xmlns="http://www.w3.org/2000/svg">
<g clip-path="url(#clip0_2_30)">
<path d="M30.1297 31.996H15.395C15.338 31.996 15.2815 31.9848 15.2288 31.9629C15.1762 31.941 15.1284 31.909 15.0881 31.8686C15.0478 31.8282 15.016 31.7803 14.9943 31.7276C14.9726 31.6749 14.9615 31.6184 14.9617 31.5613V31.54V31.5413L15.8283 14.2787C15.8348 14.1684 15.8831 14.0648 15.9634 13.989C16.0437 13.9131 16.1499 13.8708 16.2603 13.8707H29.263C29.4937 13.8707 29.6817 14.0507 29.695 14.2773V14.2787L30.5577 31.4547C30.5657 31.4867 30.571 31.524 30.571 31.5627V31.564C30.571 31.6786 30.5255 31.7885 30.4445 31.8695C30.3634 31.9505 30.2536 31.996 30.139 31.996H30.1376H30.1297ZM17.999 17.492C18.0017 18.116 18.411 18.6427 18.975 18.8227L18.9843 18.8253C19.439 21.0267 21.003 22.656 22.8617 22.656C24.7203 22.656 26.2817 21.0253 26.7337 18.832C27.0361 18.7426 27.2998 18.5543 27.4824 18.2972C27.6651 18.0402 27.7562 17.7292 27.741 17.4142C27.7259 17.0992 27.6055 16.7984 27.399 16.56C27.1926 16.3216 26.9121 16.1594 26.6024 16.0994C26.2928 16.0394 25.972 16.0851 25.6915 16.2292C25.411 16.3733 25.1869 16.6073 25.0552 16.8939C24.9236 17.1805 24.8919 17.503 24.9654 17.8096C25.0388 18.1163 25.2131 18.3895 25.4603 18.5853L25.463 18.588C25.1323 20.1853 24.091 21.3573 22.8563 21.3573C21.6217 21.3573 20.5857 20.192 20.2523 18.6013C20.4406 18.4556 20.5886 18.2644 20.6825 18.0456C20.7765 17.8269 20.8132 17.5878 20.7892 17.3509C20.7652 17.1141 20.6813 16.8872 20.5455 16.6917C20.4096 16.4963 20.2262 16.3386 20.0126 16.2335C19.799 16.1285 19.5621 16.0795 19.3244 16.0913C19.0866 16.103 18.8557 16.1751 18.6535 16.3007C18.4513 16.4263 18.2844 16.6014 18.1684 16.8093C18.0525 17.0173 17.9915 17.2513 17.991 17.4893V17.4933L17.999 17.492ZM0.434985 30.2933C0.376114 30.2933 0.317878 30.2812 0.263833 30.2578C0.209787 30.2345 0.161065 30.2004 0.120639 30.1576C0.0802132 30.1148 0.0489316 30.0642 0.0287032 30.0089C0.0084748 29.9536 -0.000276103 29.8948 0.00298452 29.836V29.8373L1.20832 5.84401C1.21477 5.73376 1.26308 5.63013 1.34337 5.5543C1.42366 5.47847 1.52988 5.43616 1.64032 5.43601H4.57898C5.50032 2.23601 7.95899 0.00134277 10.8177 0.00134277C13.6763 0.00134277 16.1323 2.23734 17.0537 5.43334H19.7137C19.943 5.43334 20.1323 5.61334 20.1443 5.84001V5.84134L20.4923 12.7867H16.2603C15.4497 12.7867 14.7883 13.4227 14.747 14.2227V14.2267L13.9403 30.2947L0.434985 30.2933ZM14.599 7.57068C14.2522 7.79673 13.9876 8.12867 13.8446 8.51714C13.7016 8.9056 13.6878 9.32985 13.8053 9.7268C13.9227 10.1237 14.1651 10.4722 14.4964 10.7203C14.8278 10.9684 15.2304 11.103 15.6443 11.104C16.0941 11.106 16.5303 10.95 16.8768 10.6632C17.2233 10.3765 17.4581 9.97719 17.5404 9.535C17.6226 9.09281 17.5469 8.63578 17.3267 8.24365C17.1064 7.85152 16.7554 7.54917 16.335 7.38934L16.3217 7.38534C16.007 3.84134 13.659 1.08001 10.819 1.08001C7.97898 1.08001 5.62165 3.84668 5.31098 7.39734C4.90922 7.55451 4.57209 7.84241 4.35395 8.21461C4.13582 8.58682 4.0494 9.02164 4.10863 9.44898C4.16785 9.87631 4.36927 10.2712 4.6804 10.5701C4.99154 10.869 5.39426 11.0543 5.82363 11.0963C6.25299 11.1383 6.68399 11.0344 7.04711 10.8015C7.41024 10.5685 7.68434 10.2201 7.82521 9.81234C7.96608 9.40457 7.96551 8.96124 7.8236 8.55383C7.68169 8.14642 7.40671 7.79868 7.04298 7.56668L7.03498 7.56268C7.25898 4.89334 8.86965 2.81601 10.819 2.81601C12.7683 2.81601 14.383 4.90001 14.603 7.57468L14.599 7.57068ZM8.74698 5.43068H12.8803C12.7046 5.01584 12.4217 4.65521 12.0606 4.38576C11.6996 4.11631 11.2733 3.94774 10.8257 3.89734L10.8137 3.89601C9.88032 3.99868 9.10699 4.59601 8.75365 5.41601L8.74698 5.43201V5.43068ZM25.8123 17.4547C25.8073 17.3849 25.8166 17.3148 25.8399 17.2487C25.8631 17.1827 25.8997 17.1222 25.9474 17.071C25.995 17.0197 26.0528 16.9788 26.1169 16.9509C26.1811 16.9229 26.2503 16.9085 26.3203 16.9085C26.3903 16.9085 26.4595 16.9229 26.5237 16.9509C26.5879 16.9788 26.6456 17.0197 26.6933 17.071C26.7409 17.1222 26.7775 17.1827 26.8008 17.2487C26.824 17.3148 26.8334 17.3849 26.8283 17.4547C26.8171 17.5815 26.7587 17.6994 26.6648 17.7853C26.5709 17.8713 26.4483 17.9189 26.321 17.9189C26.1937 17.9189 26.071 17.8713 25.9771 17.7853C25.8832 17.6994 25.8249 17.5815 25.8137 17.4547H25.8123ZM18.847 17.4547C18.847 17.3539 18.8769 17.2555 18.9328 17.1717C18.9888 17.0879 19.0683 17.0227 19.1614 16.9841C19.2545 16.9456 19.3569 16.9355 19.4557 16.9551C19.5545 16.9748 19.6452 17.0233 19.7165 17.0945C19.7877 17.1658 19.8362 17.2565 19.8559 17.3553C19.8755 17.4541 19.8654 17.5565 19.8269 17.6496C19.7883 17.7427 19.723 17.8222 19.6393 17.8782C19.5555 17.9341 19.4571 17.964 19.3563 17.964C19.2222 17.9626 19.094 17.9083 18.9996 17.813C18.9052 17.7176 18.8523 17.5888 18.8523 17.4547H18.847ZM14.879 9.26001C14.879 9.05933 14.9587 8.86687 15.1006 8.72497C15.2425 8.58306 15.435 8.50334 15.6357 8.50334C15.8363 8.50334 16.0288 8.58306 16.1707 8.72497C16.3126 8.86687 16.3923 9.05933 16.3923 9.26001C16.3923 9.46069 16.3126 9.65315 16.1707 9.79505C16.0288 9.93696 15.8363 10.0167 15.6357 10.0167C15.435 10.0167 15.2425 9.93696 15.1006 9.79505C14.9587 9.65315 14.879 9.46069 14.879 9.26001ZM5.24165 9.26001C5.23408 9.15584 5.24806 9.05122 5.28272 8.95269C5.31738 8.85417 5.37198 8.76384 5.44311 8.68736C5.51424 8.61087 5.60037 8.54987 5.69612 8.50815C5.79188 8.46644 5.8952 8.44491 5.99965 8.44491C6.1041 8.44491 6.20742 8.46644 6.30318 8.50815C6.39894 8.54987 6.48506 8.61087 6.55619 8.68736C6.62732 8.76384 6.68192 8.85417 6.71658 8.95269C6.75124 9.05122 6.76522 9.15584 6.75765 9.26001C6.7417 9.44989 6.655 9.62686 6.51474 9.75584C6.37447 9.88482 6.19087 9.9564 6.00032 9.9564C5.80976 9.9564 5.62616 9.88482 5.4859 9.75584C5.34563 9.62686 5.25893 9.44989 5.24298 9.26001H5.24165Z" fill="white"/>
</g>
<path d="M42.302 25V8.2H49.046C50.79 8.2 52.118 8.608 53.03 9.424C53.958 10.224 54.422 11.256 54.422 12.52C54.422 13.576 54.134 14.424 53.558 15.064C52.998 15.688 52.31 16.112 51.494 16.336C52.454 16.528 53.246 17.008 53.87 17.776C54.494 18.528 54.806 19.408 54.806 20.416C54.806 21.744 54.326 22.84 53.366 23.704C52.406 24.568 51.046 25 49.286 25H42.302ZM45.374 15.256H48.59C49.454 15.256 50.118 15.056 50.582 14.656C51.046 14.256 51.278 13.688 51.278 12.952C51.278 12.248 51.046 11.696 50.582 11.296C50.134 10.88 49.454 10.672 48.542 10.672H45.374V15.256ZM45.374 22.504H48.806C49.718 22.504 50.422 22.296 50.918 21.88C51.43 21.448 51.686 20.848 51.686 20.08C51.686 19.296 51.422 18.68 50.894 18.232C50.366 17.784 49.654 17.56 48.758 17.56H45.374V22.504ZM61.3546 25.288C59.8666 25.288 58.7146 24.824 57.8986 23.896C57.0986 22.968 56.6986 21.608 56.6986 19.816V13.096H59.7466V19.528C59.7466 20.552 59.9546 21.336 60.3706 21.88C60.7866 22.424 61.4426 22.696 62.3386 22.696C63.1866 22.696 63.8826 22.392 64.4266 21.784C64.9866 21.176 65.2666 20.328 65.2666 19.24V13.096H68.3386V25H65.6266L65.3866 22.984C65.0186 23.688 64.4826 24.248 63.7786 24.664C63.0906 25.08 62.2826 25.288 61.3546 25.288ZM71.0122 25V7.72H74.0842V17.92L78.3082 13.096H81.9562L77.0842 18.52L82.7482 25H78.9082L74.0842 19.024V25H71.0122ZM87.8784 25.288C86.8544 25.288 86.0144 25.128 85.3584 24.808C84.7024 24.472 84.2144 24.032 83.8944 23.488C83.5744 22.944 83.4144 22.344 83.4144 21.688C83.4144 20.584 83.8464 19.688 84.7104 19C85.5744 18.312 86.8704 17.968 88.5984 17.968H91.6224V17.68C91.6224 16.864 91.3904 16.264 90.9264 15.88C90.4624 15.496 89.8864 15.304 89.1984 15.304C88.5744 15.304 88.0304 15.456 87.5664 15.76C87.1024 16.048 86.8144 16.48 86.7024 17.056H83.7024C83.7824 16.192 84.0704 15.44 84.5664 14.8C85.0784 14.16 85.7344 13.672 86.5344 13.336C87.3344 12.984 88.2304 12.808 89.2224 12.808C90.9184 12.808 92.2544 13.232 93.2304 14.08C94.2064 14.928 94.6944 16.128 94.6944 17.68V25H92.0784L91.7904 23.08C91.4384 23.72 90.9424 24.248 90.3024 24.664C89.6784 25.08 88.8704 25.288 87.8784 25.288ZM88.5744 22.888C89.4544 22.888 90.1344 22.6 90.6144 22.024C91.1104 21.448 91.4224 20.736 91.5504 19.888H88.9344C88.1184 19.888 87.5344 20.04 87.1824 20.344C86.8304 20.632 86.6544 20.992 86.6544 21.424C86.6544 21.888 86.8304 22.248 87.1824 22.504C87.5344 22.76 87.9984 22.888 88.5744 22.888ZM97.1459 30.28V13.096H99.8819L100.218 14.8C100.602 14.272 101.106 13.808 101.73 13.408C102.37 13.008 103.194 12.808 104.202 12.808C105.322 12.808 106.322 13.08 107.202 13.624C108.082 14.168 108.778 14.912 109.29 15.856C109.802 16.8 110.058 17.872 110.058 19.072C110.058 20.272 109.802 21.344 109.29 22.288C108.778 23.216 108.082 23.952 107.202 24.496C106.322 25.024 105.322 25.288 104.202 25.288C103.306 25.288 102.522 25.12 101.85 24.784C101.178 24.448 100.634 23.976 100.218 23.368V30.28H97.1459ZM103.554 22.6C104.53 22.6 105.338 22.272 105.978 21.616C106.618 20.96 106.938 20.112 106.938 19.072C106.938 18.032 106.618 17.176 105.978 16.504C105.338 15.832 104.53 15.496 103.554 15.496C102.562 15.496 101.746 15.832 101.106 16.504C100.482 17.16 100.17 18.008 100.17 19.048C100.17 20.088 100.482 20.944 101.106 21.616C101.746 22.272 102.562 22.6 103.554 22.6ZM118.106 25.288C116.906 25.288 115.842 25.032 114.914 24.52C113.986 24.008 113.258 23.288 112.73 22.36C112.202 21.432 111.938 20.36 111.938 19.144C111.938 17.912 112.194 16.816 112.706 15.856C113.234 14.896 113.954 14.152 114.866 13.624C115.794 13.08 116.882 12.808 118.13 12.808C119.298 12.808 120.33 13.064 121.226 13.576C122.122 14.088 122.818 14.792 123.314 15.688C123.826 16.568 124.082 17.552 124.082 18.64C124.082 18.816 124.074 19 124.058 19.192C124.058 19.384 124.05 19.584 124.034 19.792H114.986C115.05 20.72 115.37 21.448 115.946 21.976C116.538 22.504 117.25 22.768 118.082 22.768C118.706 22.768 119.226 22.632 119.642 22.36C120.074 22.072 120.394 21.704 120.602 21.256H123.722C123.498 22.008 123.122 22.696 122.594 23.32C122.082 23.928 121.442 24.408 120.674 24.76C119.922 25.112 119.066 25.288 118.106 25.288ZM118.13 15.304C117.378 15.304 116.714 15.52 116.138 15.952C115.562 16.368 115.194 17.008 115.034 17.872H120.962C120.914 17.088 120.626 16.464 120.098 16C119.57 15.536 118.914 15.304 118.13 15.304ZM131.658 25.288C130.538 25.288 129.538 25.016 128.658 24.472C127.778 23.928 127.082 23.184 126.57 22.24C126.058 21.296 125.802 20.224 125.802 19.024C125.802 17.824 126.058 16.76 126.57 15.832C127.082 14.888 127.778 14.152 128.658 13.624C129.538 13.08 130.538 12.808 131.658 12.808C132.554 12.808 133.338 12.976 134.01 13.312C134.682 13.648 135.226 14.12 135.642 14.728V7.72H138.714V25H135.978L135.642 23.296C135.258 23.824 134.746 24.288 134.106 24.688C133.482 25.088 132.666 25.288 131.658 25.288ZM132.306 22.6C133.298 22.6 134.106 22.272 134.73 21.616C135.37 20.944 135.69 20.088 135.69 19.048C135.69 18.008 135.37 17.16 134.73 16.504C134.106 15.832 133.298 15.496 132.306 15.496C131.33 15.496 130.522 15.824 129.882 16.48C129.242 17.136 128.922 17.984 128.922 19.024C128.922 20.064 129.242 20.92 129.882 21.592C130.522 22.264 131.33 22.6 132.306 22.6ZM143.018 11.248C142.458 11.248 141.994 11.08 141.626 10.744C141.274 10.408 141.098 9.984 141.098 9.472C141.098 8.96 141.274 8.544 141.626 8.224C141.994 7.888 142.458 7.72 143.018 7.72C143.578 7.72 144.034 7.888 144.386 8.224C144.754 8.544 144.938 8.96 144.938 9.472C144.938 9.984 144.754 10.408 144.386 10.744C144.034 11.08 143.578 11.248 143.018 11.248ZM141.482 25V13.096H144.554V25H141.482ZM151.385 25.288C150.361 25.288 149.521 25.128 148.865 24.808C148.209 24.472 147.721 24.032 147.401 23.488C147.081 22.944 146.921 22.344 146.921 21.688C146.921 20.584 147.353 19.688 148.217 19C149.081 18.312 150.377 17.968 152.105 17.968H155.129V17.68C155.129 16.864 154.897 16.264 154.433 15.88C153.969 15.496 153.393 15.304 152.705 15.304C152.081 15.304 151.537 15.456 151.073 15.76C150.609 16.048 150.321 16.48 150.209 17.056H147.209C147.289 16.192 147.577 15.44 148.073 14.8C148.585 14.16 149.241 13.672 150.041 13.336C150.841 12.984 151.737 12.808 152.729 12.808C154.425 12.808 155.761 13.232 156.737 14.08C157.713 14.928 158.201 16.128 158.201 17.68V25H155.585L155.297 23.08C154.945 23.72 154.449 24.248 153.809 24.664C153.185 25.08 152.377 25.288 151.385 25.288ZM152.081 22.888C152.961 22.888 153.641 22.6 154.121 22.024C154.617 21.448 154.929 20.736 155.057 19.888H152.441C151.625 19.888 151.041 20.04 150.689 20.344C150.337 20.632 150.161 20.992 150.161 21.424C150.161 21.888 150.337 22.248 150.689 22.504C151.041 22.76 151.505 22.888 152.081 22.888Z" fill="white"/>
<defs>
<clipPath id="clip0_2_30">
<rect width="30.67" height="32" fill="white"/>
</clipPath>
</defs>
</svg>
